HIERARCHY
ROOT Hips
{
	OFFSET -0.179506 -22.333345 2.821913
	CHANNELS 6 Xposition Yposition Zposition Zrotation Yrotation Xrotation 
	JOINT LeftUpLeg
	{
		OFFSET 6.951974 -9.140623 -0.681533
		CHANNELS 3 Zrotation Yrotation Xrotation
		JOINT LeftLeg
		{
			OFFSET 3.427654 -37.519855 -0.449580
			CHANNELS 3 Zrotation Yrotation Xrotation
			JOINT LeftFoot
			{
				OFFSET -1.359570 -39.796059 -4.369333
				CHANNELS 3 Zrotation Yrotation Xrotation
				JOINT LeftToe
				{
					OFFSET 2.635814 -5.579078 11.928840
					CHANNELS 3 Zrotation Yrotation Xrotation
					End Site
					{
						OFFSET 0.000000 0.000000 0.000000
					}
				}
			}
		}
	}
	JOINT RightUpLeg
	{
		OFFSET -6.767048 -9.052170 -0.431982
		CHANNELS 3 Zrotation Yrotation Xrotation
		JOINT RightLeg
		{
			OFFSET -3.829005 -38.256897 -0.885003
			CHANNELS 3 Zrotation Yrotation Xrotation
			JOINT RightFoot
			{
				OFFSET 1.577377 -39.841461 -4.231180
				CHANNELS 3 Zrotation Yrotation Xrotation
				JOINT RightToe
				{
					OFFSET -2.537174 -4.814398 12.334795
					CHANNELS 3 Zrotation Yrotation Xrotation
					End Site
					{
						OFFSET 0.000000 0.000000 0.000000
					}
				}
			}
		}
	}
	JOINT Spine
	{
		OFFSET -0.253288 10.896323 -2.669631
		CHANNELS 3 Zrotation Yrotation Xrotation
		JOINT Spine1
		{
			OFFSET 0.548704 13.518043 0.109247
			CHANNELS 3 Zrotation Yrotation Xrotation
			JOINT Spine2
			{
				OFFSET 0.145701 5.292222 2.542457
				CHANNELS 3 Zrotation Yrotation Xrotation
				JOINT Neck
				{
					OFFSET -0.277840 21.387037 -4.285703
					CHANNELS 3 Zrotation Yrotation Xrotation
					JOINT Head
					{
						OFFSET 0.515184 6.496960 5.134897
						CHANNELS 3 Zrotation Yrotation Xrotation
						End Site
						{
							OFFSET 0.000000 0.000000 0.000000
						}
					}
				}
				JOINT LeftShoulder
				{
					OFFSET 7.884473 12.174932 -3.408961
					CHANNELS 3 Zrotation Yrotation Xrotation
					JOINT LeftArm
					{
						OFFSET 9.097692 3.046888 -0.886815
						CHANNELS 3 Zrotation Yrotation Xrotation
						JOINT LeftForeArm
						{
							OFFSET 25.961220 -1.277207 -2.745643
							CHANNELS 3 Zrotation Yrotation Xrotation
							JOINT LeftHand
							{
								OFFSET 24.923361 0.898606 -0.117091
								CHANNELS 3 Zrotation Yrotation Xrotation
								End Site
								{
									OFFSET 0.000000 0.000000 0.000000
								}
							}
						}
					}
				}
				JOINT RightShoulder
				{
					OFFSET -8.175920 11.883285 -3.861528
					CHANNELS 3 Zrotation Yrotation Xrotation
					JOINT RightArm
					{
						OFFSET -9.601238 3.255117 -0.914307
						CHANNELS 3 Zrotation Yrotation Xrotation
						JOINT RightForeArm
						{
							OFFSET -25.374195 -1.332924 -2.140099
							CHANNELS 3 Zrotation Yrotation Xrotation
							JOINT RightHand
							{
								OFFSET -25.529810 0.777228 -0.555919
								CHANNELS 3 Zrotation Yrotation Xrotation
								End Site
								{
									OFFSET 0.000000 0.000000 0.000000
								}
							}
						}
					}
				}
			}
		}
	}
}
MOTION
Frames: 6
Frame Time: 0.033333
34.859409 -9.829434 91.099800 -79.574519 4.481688 82.605163 23.503153 5.051624 -7.210774 -1.681735 6.148455 39.314841 -4.100248 0.963773 -23.801654 nan nan nan -12.895217 -11.229395 -13.250015 1.030829 -10.298573 28.544944 3.864090 2.632699 -12.692337 nan nan nan -6.994694 4.615758 8.675497 7.146729 -5.203483 11.288841 2.928244 0.775869 -4.514176 1.460140 -23.036637 7.641519 11.414453 -38.956483 11.148255 -6.966032 -19.799269 -0.315703 -81.083972 -50.052186 36.744125 128.639243 -79.624804 -99.512867 13.118000 -32.910307 -40.328810 20.468948 12.625940 7.782016 46.803946 11.079636 -7.701219 -40.182725 35.598083 -28.278744 10.795494 20.852386 -20.007204 
34.880669 -9.960505 91.036804 -79.673299 4.544803 82.577095 23.361129 5.301946 -7.023878 -1.389400 6.199881 39.233408 -3.752305 1.174499 -24.154791 nan nan nan -12.914251 -11.082226 -13.297235 1.085129 -10.218060 28.604433 4.034524 2.452094 -12.768892 nan nan nan -6.821052 4.433863 8.643499 7.152415 -5.120990 11.248714 2.946018 0.706307 -4.297575 1.543398 -23.027802 7.161226 10.879780 -38.766256 11.590770 -7.017301 -19.798884 -0.307811 -81.037786 -50.073576 36.697594 128.941586 -79.513834 -99.613756 13.395429 -32.871219 -40.505692 20.264556 12.645567 7.662689 46.877029 11.267645 -7.510896 -40.157427 35.549311 -28.119694 10.791205 20.808602 -20.092438 
34.899765 -10.100070 90.979736 -79.814205 4.626499 82.566621 23.241108 5.653265 -6.827391 -0.995082 6.357152 39.097514 -3.419026 1.360792 -24.481298 nan nan nan -12.880124 -11.064402 -13.437444 1.045291 -10.030365 28.764382 4.104114 2.526043 -12.750572 nan nan nan -6.678392 4.319027 8.526953 7.177543 -5.092168 11.326047 2.971873 0.722452 -4.176413 1.625727 -23.034559 6.925389 10.661897 -38.623303 11.696211 -7.015049 -19.886167 -0.269005 -81.009372 -50.077518 36.621785 129.087476 -79.421154 -99.808085 13.582181 -32.823357 -40.705787 20.224841 12.655820 7.604693 46.794210 11.322461 -7.440589 -40.170504 35.652086 -28.185430 10.764444 20.693920 -19.934957 
34.901733 -10.243742 90.914452 -79.988131 4.681501 82.614329 23.128518 6.139904 -6.651869 -0.610716 6.515103 38.873309 -2.974072 1.283038 -24.773793 nan nan nan -12.849148 -11.174229 -13.621614 0.985718 -9.715477 28.893945 4.120285 2.724708 -12.652710 nan nan nan -6.541945 4.183314 8.364469 7.163818 -5.079861 11.400959 2.961077 0.814254 -4.095558 1.751625 -23.005494 6.689317 10.396333 -38.410255 11.870499 -6.990179 -19.841904 -0.330979 -81.089133 -50.017672 36.611566 129.554161 -79.467559 -100.422009 13.710669 -32.730961 -40.996067 20.209788 12.578730 7.521211 46.764850 11.351425 -7.321264 -40.236040 35.825621 -28.372676 10.710835 20.559350 -19.526149 
34.904053 -10.390635 90.856262 -80.120454 4.750472 82.637356 23.067300 6.465651 -6.399261 -0.417954 6.556652 38.490486 -2.643258 1.258180 -25.137323 nan nan nan -12.807419 -11.165243 -13.709769 0.960824 -9.482622 28.908126 4.145139 2.777980 -12.615386 nan nan nan -6.406067 4.034701 8.304223 7.165404 -5.052745 11.393351 2.974540 0.909363 -4.011199 1.884561 -22.826013 6.446549 10.149754 -38.175147 12.006511 -7.000164 -19.755981 -0.406397 -81.131681 -49.954275 36.597220 130.181258 -79.545827 -101.143598 13.874761 -32.708100 -41.393686 20.139655 12.489501 7.408578 46.828181 11.407117 -7.146185 -40.264324 35.988591 -28.329360 10.306226 20.565925 -19.273055 
34.892616 -10.530794 90.809395 -80.193061 4.813976 82.647223 23.004723 6.816441 -6.112538 -0.319275 6.323886 38.002092 -2.610944 1.149352 -25.363622 nan nan nan -12.760900 -11.074193 -13.773272 0.899666 -9.352896 28.914266 4.245902 2.663575 -12.597358 nan nan nan -6.304926 3.764132 8.485140 7.143064 -5.011328 11.081868 3.013591 1.060310 -3.929003 1.944655 -22.611554 6.367467 9.976716 -37.788125 11.991100 -6.988233 -19.541468 -0.429203 -81.209655 -49.820646 36.589051 131.354596 -79.585995 -102.181171 14.098572 -32.586875 -41.869250 20.027154 12.320301 7.273827 47.161465 11.530539 -6.927126 -40.269199 36.105351 -28.236048 9.894425 20.729927 -19.358339 
